{"title":"Modern Family S05E22 WEB-DL x264 AAC [GWC].mp4","uid":10111803,"size":93910009,"categoryP":"video","categoryS":"tv_shows","magnet":"?xt=urn:btih:c563eae5b8effd2fcf7968d30689262491bd275b&amp;dn=Modern+Family+S05E22+WEB-DL+x264+AAC+%5BGWC%5D.mp4&amp;tr=udp%3A%2F%2Ftracker.openbittorrent.com%3A80&amp;tr=udp%3A%2F%2Fopen.demonii.com%3A1337&amp;tr=udp%3A%2F%2Ftracker.coppersurfer.tk%3A6969&amp;tr=udp%3A%2F%2Fexodus.desync.com%3A6969","seeders":1,"leechers":0,"uploader":"canc232","files":1,"time":1399523652,"description":"Modern Family S05E22 WEB-DL x264 AAC [GWC]\n\n\nSTORYLINE :\nThree different, but related families face trials and tribulations in their own uniquely comedic ways.\n\n\nSCREENS : &lt;a href=&quot;\nhttp://i.imgur.com/6UTHBGe.jpg&quot; rel=&quot;nofollow&quot; target=&quot;_NEW&quot;&gt;\nhttp://i.imgur.com/6UTHBGe.jpg&lt;/a&gt; &lt;a href=&quot;\nhttp://i.imgur.com/ol02KLm.jpg&quot; rel=&quot;nofollow&quot; target=&quot;_NEW&quot;&gt;\nhttp://i.imgur.com/ol02KLm.jpg&lt;/a&gt; &lt;a href=&quot;\nhttp://i.imgur.com/lgTOP4y.jpg&quot; rel=&quot;nofollow&quot; target=&quot;_NEW&quot;&gt;\nhttp://i.imgur.com/lgTOP4y.jpg&lt;/a&gt;\n\n\nMEDIA INFO :\nGeneral \nFormat : MPEG-4 \nFormat profile : Base Media \nFile size : 89.6 MiB \nDuration : 21mn 7s \nOverall bit rate mode : Variable \nOverall bit rate : 593 Kbps \n\nVideo \nFormat : AVC \nFormat profile : &lt;a class=&quot;__cf_email__&quot; href=&quot;/cdn-cgi/l/email-protection&quot; data-cfemail=&quot;dd95b4bab59d91eef3ed&quot;&gt;[email&amp;#160;protected]&lt;/a&gt;&lt;script cf-hash='f9e31' type=&quot;text/javascript&quot;&gt;\n/* &lt;![CDATA[ */!function(){try{var t=&quot;currentScript&quot;in document?document.currentScript:function(){for(var t=document.getElementsByTagName(&quot;script&quot;),e=t.length;e--;)if(t[e].getAttribute(&quot;cf-hash&quot;))return t[e]}();if(t&amp;&amp;t.previousSibling){var e,r,n,i,c=t.previousSibling,a=c.getAttribute(&quot;data-cfemail&quot;);if(a){for(e=&quot;&quot;,r=parseInt(a.substr(0,2),16),n=2;a.length-n;n+=2)i=parseInt(a.substr(n,2),16)^r,e+=String.fromCharCode(i);e=document.createTextNode(e),c.parentNode.replaceChild(e,c)}}}catch(u){}}();/* ]]&gt; */&lt;/script&gt; \nFormat settings, CABAC : Yes \nFormat settings, ReFrames : 4 frames \nDuration : 21mn 7s \nBit rate : 530 Kbps \nMaximum bit rate : 1 536 Kbps \nWidth : 720 pixels \nHeight : 404 pixels \nDisplay aspect ratio : 16:9 \nFrame rate mode : Constant \nFrame rate : 23.976 fps \nStream size : 80.0 MiB (89%) \nTitle : Modern Family S05E22 WEB-DL x264 AAC [GWC] \nWriting library : x264 core \n\nAudio \nFormat : AAC \nFormat profile : HE-AAC / LC \nDuration : 21mn 7s \nBit rate mode : Variable \nChannel(s) : 2 channels \nSampling rate : 48.0 KHz / 24.0 KHz \nStream size : 9.06 MiB (10%) \nLanguage : English \n","torrent":{"xt":"urn:btih:c563eae5b8effd2fcf7968d30689262491bd275b","amp;dn":"Modern+Family+S05E22+WEB-DL+x264+AAC+%5BGWC%5D.mp4","amp;tr":["udp%3A%2F%2Ftracker.openbittorrent.com%3A80","udp%3A%2F%2Fopen.demonii.com%3A1337","udp%3A%2F%2Ftracker.coppersurfer.tk%3A6969","udp%3A%2F%2Fexodus.desync.com%3A6969"],"infoHash":"c563eae5b8effd2fcf7968d30689262491bd275b","infoHashBuffer":{"type":"Buffer","data":[197,99,234,229,184,239,253,47,207,121,104,211,6,137,38,36,145,189,39,91]},"announce":[],"urlList":[]}}